<?xml version="1.0" standalone="no"?>
<!DOCTYPE svg PUBLIC "-//W3C//DTD SVG 20010904//EN"
 "http://www.w3.org/TR/2001/REC-SVG-20010904/DTD/svg10.dtd">
<svg version="1.0" xmlns="http://www.w3.org/2000/svg"
 width="1080.000000pt" height="1080.000000pt" viewBox="0 0 1080.000000 1080.000000"
 preserveAspectRatio="xMidYMid meet">
<metadata>
Created by potrace 1.14, written by Peter Selinger 2001-2017
</metadata>
<g transform="translate(0.000000,1080.000000) scale(0.100000,-0.100000)"
fill="#000000" stroke="none">
<path d="M4667 10259 c-96 -22 -173 -92 -203 -182 -18 -54 -18 -61 11 -332 27
-266 66 -640 75 -735 5 -52 16 -162 25 -245 9 -82 20 -193 25 -245 5 -52 16
-160 25 -240 8 -80 24 -233 35 -340 10 -107 33 -330 50 -495 17 -165 39 -385
50 -490 11 -104 33 -325 50 -490 46 -456 44 -448 98 -521 65 -89 222 -127 318
-77 23 12 270 187 550 389 606 438 790 570 1854 1338 448 323 832 606 853 628
25 28 44 62 57 107 l21 67 -21 68 c-35 111 -77 148 -262 230 -84 38 -241 108
-348 156 -107 48 -528 237 -935 420 -407 182 -843 378 -970 435 -679 305
-1128 506 -1181 528 -71 29 -126 38 -177 26z"/>
<path d="M3015 6402 c-39 -21 -106 -92 -318 -337 -148 -170 -381 -438 -517
-595 -136 -157 -374 -431 -530 -610 -155 -179 -350 -403 -434 -498 -164 -188
-192 -232 -202 -314 -7 -64 19 -143 66 -200 52 -63 86 -75 410 -137 343 -65
644 -123 705 -136 39 -8 189 -37 335 -65 146 -28 319 -62 385 -75 66 -13 206
-40 310 -60 105 -20 233 -45 285 -55 328 -66 520 -100 558 -100 69 0 120 20
172 67 66 59 93 126 88 212 -5 64 -12 89 -173 551 -24 69 -116 337 -205 595
-89 259 -183 533 -210 610 -27 77 -76 221 -110 320 -34 99 -81 236 -105 305
-24 69 -64 184 -88 256 -55 161 -65 181 -116 227 -57 51 -101 67 -185 67 -58
0 -80 -5 -121 -28z"/>
<path d="M6410 5403 c-37 -11 -67 -29 -90 -53 -14 -14 -21 -20 -16 -13 5 7 6
13 2 13 -6 0 -60 -80 -61 -90 0 -3 -3 -10 -7 -15 -10 -17 -60 -148 -62 -165
-1 -8 -7 -25 -14 -36 -6 -12 -8 -24 -5 -28 3 -3 -2 -15 -12 -26 -10 -11 -19
-28 -20 -38 -1 -9 -7 -28 -14 -40 -7 -13 -10 -26 -7 -30 3 -3 -1 -14 -11 -24
-9 -10 -17 -26 -18 -36 -1 -9 -7 -28 -14 -40 -7 -13 -10 -26 -7 -30 3 -3 -1
-13 -9 -22 -8 -9 -16 -25 -18 -36 -2 -10 -9 -30 -16 -42 -7 -13 -10 -26 -7
-29 3 -3 0 -15 -6 -27 -7 -11 -11 -24 -10 -28 1 -5 -3 -8 -8 -8 -5 0 -9 -3 -8
-7 1 -5 -3 -18 -10 -30 -7 -12 -11 -26 -10 -30 2 -9 -15 -51 -38 -95 -8 -15
-14 -30 -13 -35 1 -4 -10 -34 -25 -67 -15 -32 -24 -61 -21 -64 3 -3 -2 -16
-11 -30 -8 -13 -13 -26 -10 -30 3 -3 0 -12 -8 -21 -12 -15 -39 -82 -42 -106 0
-5 -13 -36 -27 -68 -15 -32 -27 -62 -27 -68 0 -5 -7 -24 -16 -41 -9 -16 -11
-27 -5 -24 7 4 8 1 5 -8 -3 -9 -11 -16 -16 -16 -6 0 -7 -7 -4 -16 3 -9 2 -12
-5 -9 -6 4 -9 1 -8 -6 2 -8 -5 -29 -15 -48 -11 -21 -13 -30 -5 -25 7 4 3 -6
-9 -23 -12 -18 -19 -38 -16 -47 3 -9 2 -16 -4 -16 -8 0 -43 -81 -47 -110 0 -3
-6 -15 -13 -27 -7 -12 -11 -26 -10 -30 1 -4 -3 -18 -10 -29 -6 -12 -8 -24 -5
-28 3 -3 1 -6 -5 -6 -7 0 -11 -3 -10 -7 1 -5 -3 -18 -10 -30 -7 -12 -11 -26
-10 -30 1 -4 -3 -18 -10 -31 -7 -12 -10 -28 -6 -34 4 -6 3 -8 -3 -5 -9 6 -24
-24 -28 -58 -1 -5 -13 -35 -27 -65 -23 -51 -40 -101 -42 -125 -1 -5 -7 -20
-13 -31 -7 -12 -9 -24 -6 -28 3 -3 1 -6 -5 -6 -7 0 -11 -3 -10 -7 1 -5 -3 -18
-10 -30 -7 -12 -11 -26 -10 -30 1 -4 -3 -18 -10 -29 -6 -12 -8 -24 -5 -28 3
-3 1 -6 -6 -6 -7 0 -10 -4 -6 -9 3 -5 1 -12 -4 -15 -9 -6 -45 -104 -43 -116 0
-3 -4 -10 -10 -17 -5 -7 -6 -18 -2 -24 5 -8 3 -9 -5 -5 -8 5 -11 3 -10 -5 2
-13 -11 -50 -32 -92 -6 -10 -7 -22 -4 -27 4 -6 1 -10 -4 -10 -6 0 -10 -3 -9
-7 1 -5 -4 -19 -11 -31 -7 -13 -10 -26 -7 -30 3 -3 0 -12 -8 -21 -13 -15 -40
-85 -41 -106 -1 -5 -7 -21 -14 -33 -7 -13 -10 -26 -7 -30 3 -3 -1 -14 -11 -24
-9 -10 -17 -26 -18 -36 -1 -9 -7 -27 -14 -40 -6 -12 -10 -26 -7 -31 3 -5 -1
-14 -10 -21 -8 -7 -13 -19 -10 -27 4 -8 1 -11 -5 -8 -6 4 -9 1 -8 -6 1 -8 -3
-27 -11 -44 -39 -92 -60 -146 -58 -153 1 -4 -3 -17 -10 -28 -6 -12 -8 -24 -5
-28 3 -3 1 -6 -5 -6 -7 0 -11 -3 -10 -7 1 -5 -3 -18 -10 -31 -7 -12 -10 -27
-7 -32 3 -6 2 -10 -3 -10 -8 0 -18 -22 -27 -60 0 -3 -6 -15 -13 -27 -7 -12
-12 -26 -11 -30 1 -4 -10 -34 -25 -67 -15 -32 -24 -61 -21 -64 3 -3 -2 -16
-11 -30 -8 -13 -13 -26 -10 -30 3 -3 -1 -14 -11 -24 -9 -10 -17 -26 -18 -36
-1 -9 -6 -27 -13 -38 -6 -12 -9 -24 -6 -27 3 -3 -2 -17 -11 -31 -9 -14 -18
-31 -19 -38 -1 -7 -7 -22 -13 -33 -9 -17 -36 -91 -38 -105 0 -3 -6 -15 -13
-27 -7 -12 -11 -26 -10 -30 1 -4 -3 -18 -10 -31 -7 -12 -11 -26 -8 -31 3 -5
-1 -14 -10 -21 -8 -7 -13 -19 -10 -27 4 -9 1 -11 -6 -7 -8 5 -9 2 -5 -11 4 -9
2 -23 -3 -31 -15 -17 -15 -86 -1 -113 7 -12 9 -26 6 -31 -3 -6 -1 -10 4 -10 6
0 10 -3 9 -7 -4 -20 25 -64 61 -93 21 -18 42 -31 46 -31 3 1 13 -5 21 -14 10
-10 24 -13 41 -9 16 4 24 3 20 -3 -4 -6 15 -7 51 -2 32 5 71 7 87 5 17 -2 41
1 54 6 13 5 39 9 57 10 18 1 32 4 30 7 -2 3 16 7 39 7 24 1 52 5 62 10 10 4
32 8 48 9 52 1 155 17 155 24 0 3 23 7 51 8 28 1 57 7 64 13 8 7 19 9 25 5 11
-7 44 -2 215 30 38 7 74 11 79 8 5 -4 7 -2 4 3 -4 5 16 10 43 11 27 0 56 6 63
12 8 6 27 8 46 4 19 -3 31 -2 28 3 -6 8 14 11 99 15 18 1 31 4 29 8 -2 3 19 7
46 8 28 1 55 6 61 12 5 5 25 7 45 4 20 -4 33 -2 30 3 -4 5 10 10 30 11 21 1
52 3 69 4 20 1 30 5 26 12 -3 6 -1 7 6 3 11 -7 105 5 201 26 25 5 58 9 73 8
16 0 26 3 23 8 -2 4 12 9 32 9 71 3 100 8 95 17 -3 4 4 5 15 2 11 -4 39 -2 63
5 24 6 59 11 77 10 17 -1 32 2 32 7 0 4 12 8 28 9 69 4 100 8 97 14 -2 3 10 5
28 5 18 0 46 4 62 8 17 4 39 8 50 8 11 0 43 4 70 9 28 5 72 11 100 15 27 3 59
10 70 14 11 4 23 8 28 9 4 0 8 1 10 2 1 0 22 2 47 4 25 1 56 6 70 10 14 4 40
8 57 8 20 0 30 4 26 10 -3 6 -1 7 5 3 15 -9 103 4 97 14 -3 5 12 6 33 4 21 -2
56 2 78 10 22 7 52 12 67 11 15 -2 27 0 27 4 0 4 8 7 18 7 39 2 157 16 164 20
3 2 28 7 55 9 26 3 59 8 73 11 61 14 163 31 218 36 6 1 12 4 12 8 0 3 19 6 43
6 23 0 58 4 77 8 19 5 43 8 53 8 11 -1 15 4 10 11 -5 9 -2 8 9 0 8 -7 17 -11
19 -8 3 2 20 7 39 10 19 3 39 10 45 14 5 4 28 7 50 6 22 -1 54 3 70 10 17 6
40 10 53 9 12 -2 22 -1 22 4 0 4 15 7 33 8 50 1 97 8 97 14 0 3 19 5 43 6 23
0 56 4 72 8 17 4 46 9 65 11 19 2 49 9 65 16 17 7 36 13 43 13 7 1 16 7 21 14
5 8 10 12 12 11 2 -2 15 4 29 14 13 9 21 17 18 17 -4 0 6 14 22 32 16 17 27
35 24 40 -3 5 0 16 7 25 16 19 20 141 5 168 -5 11 -9 26 -8 33 2 7 -4 15 -13
18 -8 3 -15 11 -15 18 0 12 -49 74 -95 120 -16 17 -29 34 -28 37 2 4 -11 19
-28 33 -17 14 -28 26 -25 26 6 0 -5 14 -50 64 -13 14 -20 26 -17 26 3 0 -7 12
-23 28 -16 15 -29 30 -29 32 -1 7 -36 50 -71 87 -18 18 -29 33 -25 33 3 0 -6
11 -21 24 -15 12 -26 25 -23 28 3 2 -18 29 -45 58 -28 30 -50 57 -50 60 0 3
-20 27 -44 53 -24 26 -42 47 -40 47 5 0 -40 52 -76 89 -19 19 -28 32 -20 27 8
-4 5 1 -7 10 -13 9 -23 22 -23 28 0 6 -16 29 -35 51 -20 22 -48 55 -63 74 -15
18 -40 47 -57 65 -16 17 -30 34 -30 39 0 4 -12 18 -27 31 -15 12 -26 25 -23
27 2 2 -12 22 -31 44 -19 22 -34 43 -34 48 0 4 -4 5 -10 2 -5 -3 -10 1 -10 9
0 9 -9 21 -20 28 -11 7 -20 18 -20 23 0 6 -22 34 -49 62 -27 28 -47 53 -45 56
3 3 -9 15 -26 27 -16 12 -28 25 -25 30 3 4 -13 27 -35 50 -22 23 -40 46 -40
51 0 4 -15 20 -32 34 -18 15 -26 24 -18 20 8 -4 1 7 -17 23 -17 17 -29 32 -27
35 3 2 -9 16 -25 30 -16 13 -27 27 -24 31 3 3 -2 8 -11 12 -9 4 -23 18 -30 33
-8 14 -30 43 -49 63 -19 20 -33 39 -30 41 2 3 -10 16 -26 30 -16 13 -28 27
-25 30 3 2 -12 19 -33 37 -21 18 -31 29 -23 25 16 -8 -1 12 -54 66 -15 16 -25
29 -21 29 5 0 -4 11 -19 25 -15 14 -25 25 -22 25 6 0 -12 21 -67 82 -19 21
-32 39 -30 41 2 3 -10 16 -26 30 -16 13 -28 27 -25 30 3 2 -7 14 -22 26 -15
11 -23 21 -18 21 5 1 -2 10 -15 20 -13 11 -20 20 -16 20 3 0 -11 17 -32 37
-21 20 -31 33 -23 28 8 -4 0 6 -18 23 -18 17 -32 34 -32 37 1 10 -104 135
-113 135 -6 0 -7 3 -4 7 4 3 -6 19 -22 34 -16 15 -27 29 -25 32 3 2 -9 16 -26
31 -17 14 -29 26 -27 26 7 0 -31 47 -73 89 -19 19 -28 31 -20 26 15 -9 -39 58
-97 121 -17 19 -28 34 -25 34 4 0 2 4 -4 8 -6 4 -29 30 -49 57 -37 50 -69 86
-112 130 -13 12 -23 27 -23 33 0 6 -10 18 -22 26 -12 9 -20 16 -16 16 7 0 -23
38 -67 84 -16 17 -28 34 -27 39 1 4 -2 7 -7 7 -5 0 -22 20 -38 45 -15 25 -34
45 -42 45 -8 0 -11 3 -8 7 7 6 -20 29 -38 33 -5 1 -18 9 -29 18 -13 13 -38 17
-95 18 -42 1 -83 0 -91 -3z"/>
</g>
</svg>
