<svg width="84" height="60" viewBox="0 0 84 60" fill="none" xmlns="http://www.w3.org/2000/svg">
<path id="Vector" d="M30 21H24.0438C26.8299 12.9315 29.2089 9.0675 37.125 5.7687C38.4462 5.2179 39.1935 3.8118 38.9121 2.4084C38.631 1.0077 37.4004 0 35.9706 0H35.9646C19.4499 0.0294 9.9636 6.6504 3.237 22.8339C1.0899 27.9171 0 33.3573 0 39C0 47.6778 2.625 52.4034 6.627 58.623C7.1778 59.4813 8.13 60 9.1494 60H30C34.9629 60 39 55.9629 39 51V30C39 25.0371 34.9629 21 30 21ZM75 21H69.0438C71.8299 12.9315 74.2089 9.0675 82.125 5.7687C83.4462 5.2179 84.1935 3.8118 83.9121 2.4084C83.631 1.0077 82.4004 0 80.9706 0H80.9646C64.4499 0.0294 54.9636 6.6504 48.237 22.8339C46.0899 27.9171 45 33.3573 45 39C45 47.6778 47.625 52.4034 51.627 58.623C52.1778 59.4813 53.13 60 54.1494 60H75C79.9629 60 84 55.9629 84 51V30C84 25.0371 79.9629 21 75 21Z" fill="#50B748"/>
</svg>
